<?xml version="1.0" encoding="utf-8"?>
<!-- Generator: Adobe Illustrator 23.0.1, SVG Export Plug-In . SVG Version: 6.00 Build 0)  -->
        <svg class="logo" version="1.1" id="Capa_1" xmlns="http://www.w3.org/2000/svg"
            xmlns:xlink="http://www.w3.org/1999/xlink" x="0px" y="0px" viewBox="0 0 164.3 116.9"
            style="enable-background:new 0 0 164.3 116.9;" xml:space="preserve">
            <style type="text/css">
                .st0 {
                    fill: #fff;
                }
            </style>
            <g>
                <path class="st0"
                    d="M147.8,65.2c3.5-3.5,3.5-9.1,0-12.5L115.1,20c-5.2-5.2-13.7-5.2-18.9,0c-5.1,5.3-5.1,13.6,0,18.9l5.3,5.3H67.3
		c-8.1,0-14.8,6.6-14.8,14.8s6.6,14.8,14.8,14.8h34.2L96.2,79c-5.1,5.3-5.1,13.6,0,18.9c5.2,5.2,13.7,5.2,18.9,0L147.8,65.2z" />
                <path class="st0" d="M16.9,90.3V27.7c0-7.6,6.2-13.8,13.8-13.8l0,0c7.6,0,13.9,6.2,13.9,13.8v62.5c0,7.6-6.2,13.8-13.8,13.8l0,0
		C23.1,104.1,16.9,97.9,16.9,90.3z" />
            </g>
        </svg>
